<?xml version="1.0" encoding="utf-8"?>
<!-- Generator: Adobe Illustrator 19.0.0, SVG Export Plug-In . SVG Version: 6.00 Build 0)  -->
<svg version="1.1" id="Layer_1" xmlns="http://www.w3.org/2000/svg" xmlns:xlink="http://www.w3.org/1999/xlink" x="0px" y="0px"
	 viewBox="0 0 162.3 117.3" enable-background="new 0 0 162.3 117.3" xml:space="preserve">
<ellipse fill="#D11217" cx="81.2" cy="58.6" rx="81.2" ry="58.6"/>
<path fill="#FFFFFF" d="M55.1,39.1l-0.5,0.3l-0.4,0.2c-0.2,0.1-0.3,0.3-0.3,0.4c0,0.2,0.1,0.3,0.4,0.4c0.2,0.1,0.4,0.1,0.7,0.1
	l0.6,0l0.7,0l0.6,0l0.5,0h0.3l0.3-0.1c0.2-0.1,0.3-0.2,0.3-0.4c0-0.1-0.1-0.3-0.3-0.4c-0.1-0.1-0.3-0.2-0.4-0.3
	c-0.2-0.1-0.3-0.2-0.6-0.4c-0.1-0.1-0.1-0.2-0.1-0.3V36c-0.3-0.3-0.5-0.7-0.5-1.3c0-0.4,0.2-0.8,0.5-1.1v-2.7c0-0.2,0.1-0.4,0.3-0.4
	c0.2-0.1,0.4-0.1,0.7-0.1c0.2,0,0.4,0,0.7,0.1c0.2,0.1,0.4,0.1,0.6,0.2c0.4,0.2,0.7,0.5,0.9,0.9c0.2,0.4,0.3,0.8,0.3,1.3
	c0,0.5-0.1,0.9-0.3,1.3c-0.2,0.3-0.5,0.5-0.9,0.5c-0.4,0-0.6-0.2-0.6-0.7c0-0.2-0.1-0.4-0.3-0.5c-0.2-0.1-0.4-0.2-0.6-0.2
	c-0.2,0-0.3,0-0.4,0.1l0.1,0.2c0,0.1-0.1,0.2-0.2,0.4L57,34.2L57,34.4v0.3c0,0.6,0.3,1.1,0.8,1.5c0.5,0.4,1.1,0.5,1.7,0.5
	c0.6,0,1.1-0.1,1.6-0.4c0.5-0.3,0.9-0.7,1.1-1.1c0.3-0.5,0.4-1,0.4-1.6c0-1.6-0.6-2.7-1.9-3.4c-0.8-0.4-1.8-0.6-3.1-0.6h-0.8h-0.7
	c-0.4,0-0.8,0-1.2,0.1l-0.3,0l-0.4,0.1C54.1,29.9,54,30,54,30.1c0.1,0.1,0.2,0.3,0.3,0.4L55,31c0.1,0.1,0.2,0.3,0.2,0.6v7.2
	C55.2,38.9,55.1,39,55.1,39.1z"/>
<path fill="#FFFFFF" d="M64,39.5l-0.3,0.2l-0.1,0.1c-0.1,0.1-0.2,0.2-0.2,0.3c0,0.2,0.1,0.3,0.4,0.4c0.2,0.1,0.3,0.1,0.3,0.1
	c0.1,0,0.2,0,0.4,0h0.3l0.3-0.1l0.4,0.1h0.3c0.2,0,0.4-0.1,0.7-0.2s0.4-0.2,0.4-0.4c0-0.1-0.1-0.2-0.1-0.3c-0.1-0.1-0.2-0.1-0.3-0.2
	l-0.3-0.2c0,0-0.1-0.1-0.1-0.2v-5.7c0.6-0.2,0.9-0.4,0.9-0.6c0-0.2-0.3-0.3-0.8-0.3h-2c-0.5,0-0.7,0.1-0.7,0.3
	c0,0.2,0.3,0.4,0.8,0.6v5.8C64.2,39.4,64.1,39.4,64,39.5z"/>
<path fill="#FFFFFF" d="M65.1,31.5c0.7,0,1.1-0.2,1.1-0.7c0-0.5-0.3-0.7-1-0.7c-0.7,0-1.1,0.2-1.1,0.7
	C64.1,31.3,64.4,31.5,65.1,31.5z"/>
<path fill="#FFFFFF" d="M68.5,40.6c0.3,0,0.7,0,1.3-0.1c0.6-0.1,1-0.1,1.2-0.1l0.7,0l0.8,0l1.2,0.1h0.3c0.8,0,1.3-0.3,1.3-1
	c0-0.2,0-0.4-0.1-0.6L75,38.7l-0.2-0.3l-0.3-0.3l-0.1-0.2l-0.1-0.2l0-0.2c0-0.2,0.1-0.3,0.2-0.4c0-0.2-0.1-0.3-0.2-0.4
	c-0.1,0-0.2-0.1-0.4-0.1c-0.1,0-0.3,0-0.4,0.1c-0.1,0.1-0.2,0.2-0.2,0.3l0.1,0.3l0.1,0.2l0,0.2c0,0.1-0.1,0.2-0.2,0.3
	c-0.1,0.1-0.3,0.2-0.5,0.2c-0.2,0.1-0.4,0.1-0.6,0.1c-0.6,0-1-0.1-1.3-0.2l3.7-4.5l0.1-0.2l0.1-0.1l0.1-0.2L75,33
	c0-0.3-0.3-0.4-0.9-0.4h-4.8c-0.4,0-0.8,0-0.9,0.1C68.1,32.8,68,32.9,68,33c0,0.2,0,0.3,0.1,0.4l0.5,0.4c0.2,0.2,0.4,0.4,0.4,0.5
	l-0.2,0.3c0.1,0.2,0.2,0.3,0.3,0.3c0.1,0.1,0.2,0.1,0.3,0.1c0.2,0,0.3-0.1,0.4-0.2c0.1-0.1,0.2-0.3,0.2-0.4c0-0.1,0-0.2-0.1-0.3
	l-0.2-0.3l-0.1-0.2c0-0.2,0.2-0.2,0.5-0.2h2c0.2,0,0.2,0,0.2,0.1c0,0.1-0.1,0.2-0.2,0.3L70,36.8l-2.3,2.8c-0.1,0.2-0.2,0.3-0.2,0.5
	c0,0.1,0.1,0.2,0.3,0.3C67.9,40.6,68.2,40.6,68.5,40.6z"/>
<path fill="#FFFFFF" d="M76,40.5c0.2,0.1,0.4,0.1,0.7,0.1c0.3,0,0.7,0,1.3-0.1c0.6-0.1,1-0.1,1.2-0.1l0.7,0l0.8,0l1.2,0.1h0.3
	c0.8,0,1.3-0.3,1.3-1c0-0.2,0-0.4-0.1-0.6l-0.2-0.3l-0.2-0.3l-0.3-0.3l-0.1-0.2l-0.1-0.2l0-0.2c0-0.2,0.1-0.3,0.2-0.4
	c0-0.2-0.1-0.3-0.2-0.4c-0.1,0-0.2-0.1-0.4-0.1c-0.1,0-0.3,0-0.4,0.1c-0.1,0.1-0.2,0.2-0.2,0.3l0.1,0.3l0.1,0.2l0,0.2
	c0,0.1-0.1,0.2-0.2,0.3c-0.1,0.1-0.3,0.2-0.5,0.2c-0.2,0.1-0.4,0.1-0.6,0.1c-0.6,0-1-0.1-1.3-0.2l3.7-4.5l0.1-0.2l0.1-0.1l0.1-0.2
	l0.1-0.3c0-0.3-0.3-0.4-0.9-0.4h-4.8c-0.4,0-0.8,0-0.9,0.1c-0.2,0.1-0.3,0.2-0.3,0.3c0,0.2,0,0.3,0.1,0.4l0.5,0.4
	c0.2,0.2,0.4,0.4,0.4,0.5L77,34.6c0.1,0.2,0.2,0.3,0.3,0.3c0.1,0.1,0.2,0.1,0.3,0.1c0.2,0,0.3-0.1,0.4-0.2c0.1-0.1,0.2-0.3,0.2-0.4
	c0-0.1,0-0.2-0.1-0.3l-0.2-0.3L78,33.7c0-0.2,0.2-0.2,0.5-0.2h2c0.2,0,0.2,0,0.2,0.1c0,0.1-0.1,0.2-0.2,0.3l-2.3,2.9L76,39.6
	c-0.1,0.2-0.2,0.3-0.2,0.5C75.8,40.3,75.9,40.4,76,40.5z"/>
<path fill="#FFFFFF" d="M85.7,40.3c0.2,0.1,0.3,0.2,0.5,0.2c0.2,0,0.3,0.1,0.5,0.1l0.7,0l0.6,0l0.6,0l0.8,0c0.2,0,0.4,0,0.5-0.1
	c0.2-0.1,0.3-0.1,0.4-0.2c0.1-0.1,0.3-0.2,0.4-0.3c0.1-0.1,0.2-0.2,0.3-0.4c0.2-0.3,0.3-0.6,0.3-1c0-0.2,0-0.3-0.1-0.4
	c0-0.1-0.1-0.2-0.2-0.4c-0.2-0.3-0.4-0.4-0.6-0.5c0,0.2-0.1,0.3-0.2,0.4c-0.1,0.1-0.2,0.2-0.2,0.2c-0.1,0.1-0.1,0.1-0.2,0.2
	c-0.3,0.2-0.8,0.3-1.3,0.3c-0.6,0-1.2-0.1-1.7-0.4c0.1-0.4,0.2-0.7,0.4-1c0.2-0.3,0.5-0.5,0.8-0.7l1.1-0.6l0.7-0.4l0.4-0.2l0.3-0.2
	c0.2-0.2,0.4-0.4,0.5-0.6c0.1-0.2,0.2-0.4,0.2-0.7c0-0.4-0.2-0.7-0.5-0.9c-0.3-0.1-0.7-0.2-1.2-0.2h-2.1c-0.7,0-1.3,0.2-1.8,0.6
	c-0.5,0.4-0.9,1-1.1,1.6c-0.2,0.7-0.4,1.4-0.4,2.1c0,1,0.2,1.8,0.7,2.5C85.2,39.8,85.4,40.1,85.7,40.3z M86.2,34.1
	c0.3-0.5,0.8-0.7,1.7-0.7c1,0,1.4,0.3,1.4,0.8c0,0.3-0.1,0.5-0.3,0.7c-0.2,0.2-0.5,0.4-1,0.6c-0.1,0.1-0.2,0.1-0.4,0.2
	c-0.2,0.1-0.3,0.2-0.3,0.2l-0.5,0.4c-0.1,0.1-0.2,0.2-0.2,0.3c-0.1,0.1-0.1,0.2-0.2,0.3c-0.1,0.2-0.2,0.4-0.3,0.7
	c-0.2-0.4-0.3-0.9-0.3-1.6C85.8,35.2,85.9,34.6,86.2,34.1z"/>
<path fill="#FFFFFF" d="M92.1,40.4c0.3,0.1,0.5,0.1,0.7,0.1h0.3l0.4-0.1l0.4,0.1h0.3c0.2,0,0.4,0,0.6-0.1c0.3-0.1,0.4-0.3,0.4-0.4
	c0-0.1,0-0.2-0.1-0.3l-0.3-0.2l-0.3-0.2c0,0-0.1-0.1-0.1-0.2v-4.6l0.5-0.2c0.3-0.1,0.4-0.2,0.5-0.2c0.1,0,0.1,0,0.2,0
	c0,0,0.1,0.1,0.2,0.1c0.1,0.1,0.2,0.2,0.2,0.4v0.3l-0.2,0.3l-0.2,0.3V36c0,0.3,0.2,0.5,0.5,0.5l0.1,0l-0.1-0.1l0.1-0.1l0.3-0.1
	c0.4-0.3,0.7-0.6,1-0.9c0.2-0.3,0.3-0.7,0.3-1.2l-0.1-0.4l-0.1-0.3L97.4,33l-0.3-0.2c-0.2-0.1-0.4-0.2-0.7-0.2l-0.3,0
	c-0.1,0-0.2,0.1-0.3,0.1l-0.4,0.4l-0.3,0.3c-0.3,0.3-0.6,0.5-0.7,0.5v-0.2c0-0.1,0.1-0.2,0.1-0.2c0.1-0.1,0.2-0.2,0.3-0.2l0.3-0.2
	c0.1-0.1,0.1-0.1,0.1-0.2c0-0.2,0-0.2-0.1-0.3h-0.4h-2.3c-0.2,0-0.3,0-0.4,0c-0.1,0.1-0.1,0.1-0.1,0.3l0.1,0.2l0.3,0.2
	c0.2,0.1,0.3,0.2,0.3,0.3c0,0.1,0.1,0.1,0.1,0.3v5.3c0,0.1,0,0.2-0.1,0.2l-0.3,0.2l-0.2,0.1c-0.2,0.1-0.3,0.2-0.3,0.3
	C91.7,40.2,91.8,40.3,92.1,40.4z"/>
<path fill="#FFFFFF" d="M99.4,31.7c0.4,0,0.9-0.2,1.4-0.6c0.6-0.5,0.9-0.9,0.9-1.2c0-0.2-0.1-0.2-0.3-0.2h-0.8
	c-0.1,0-0.3,0.1-0.4,0.2c-0.1,0.1-0.2,0.2-0.2,0.3c-0.2,0.4-0.4,0.6-0.6,0.8l-0.2,0.3c-0.1,0.1-0.2,0.2-0.2,0.3
	C99.1,31.7,99.2,31.7,99.4,31.7z"/>
<path fill="#FFFFFF" d="M98.6,39.5l-0.4,0.2C98,39.8,98,39.9,98,40.1c0,0.2,0.1,0.3,0.4,0.4c0.2,0.1,0.3,0.1,0.3,0.1
	c0.1,0,0.2,0,0.4,0h0.3l0.3-0.1l0.3,0.1h0.4c0.2,0,0.4-0.1,0.7-0.2s0.4-0.2,0.4-0.4c0-0.1-0.1-0.2-0.1-0.3c-0.1-0.1-0.2-0.1-0.3-0.2
	l-0.3-0.2c0-0.1-0.1-0.1-0.1-0.1c0,0,0-0.1,0-0.1v-5.7c0.6-0.2,0.9-0.4,0.9-0.6c0-0.2-0.3-0.3-0.8-0.3h-2c-0.5,0-0.7,0.1-0.7,0.3
	c0,0.2,0.3,0.4,0.8,0.6v5.8C98.8,39.3,98.7,39.4,98.6,39.5z"/>
<path fill="#FFFFFF" d="M103.1,40c0.1,0.1,0.3,0.2,0.5,0.3c0.4,0.2,0.8,0.3,1.2,0.3c0.2,0,0.5,0,1-0.1c0.4-0.1,0.8-0.1,1-0.1l0.3,0
	l0.6,0.1l0.8,0.1h0.5l0.4,0c0.5-0.2,0.8-0.3,0.8-0.5c0-0.2-0.2-0.4-0.6-0.7v-3.8c0-1.1-0.1-1.9-0.4-2.3c-0.3-0.5-0.8-0.7-1.6-0.7
	l-0.9,0h-1h-0.7l-0.6,0c-0.4,0-0.8,0.1-1.2,0.3c-0.4,0.2-0.5,0.5-0.5,0.9c0,0.3,0.2,0.6,0.5,0.8c0.3,0.2,0.7,0.3,1,0.3l0.4,0
	l0.4-0.1c0.2-0.1,0.4-0.1,0.5-0.1c0.1,0,0.2,0,0.3,0c0.2,0,0.2,0.1,0.2,0.2c0,0.1,0,0.1-0.1,0.1l-0.5,0.2l-0.7,0.3l-0.5,0.3
	l-0.5,0.3l-0.4,0.3l-0.4,0.4l-0.3,0.4c-0.2,0.4-0.3,0.7-0.3,1.1c0,0.4,0.1,0.8,0.3,1.2C102.8,39.7,103,39.8,103.1,40z M105,36.3
	c0.1-0.1,0.2-0.2,0.4-0.3l0.6-0.3l0.6-0.3c0.2-0.1,0.4-0.2,0.5-0.3c0.1-0.1,0.2-0.3,0.2-0.5c0-0.3-0.2-0.5-0.6-0.5l-0.7,0.1
	l-0.5,0.1l-0.3,0c-0.4,0-0.6-0.1-0.6-0.4c0-0.2,0.2-0.4,0.6-0.5l0.4-0.1h0.6c0.5,0,0.8,0.1,1.1,0.4c0.3,0.2,0.4,0.6,0.4,1.1v3.4
	c-0.2,0-0.5,0.1-0.8,0.2l-0.5,0.1l-0.4,0c-0.3,0-0.6-0.1-0.9-0.3c-0.3-0.2-0.4-0.5-0.4-0.9C104.6,36.9,104.7,36.6,105,36.3z"/>
<path fill="#FFFFFF" d="M15,47c0.5,0.5,1.6-0.7,1.9-1c0.8-0.8,1.5-1.6,2.2-2.5c1-1.3,2.4-2.3,3.1-3.9c0.2-0.5,0.5-1.3,0.2-1.8
	c0-0.1-0.1-0.1-0.1-0.2c-0.7-0.7-1.6,1.5-1.9,1.9c-0.5,1-1.5,1.9-2.3,2.8c-0.1,0.1-0.6,0.5-0.6,0.6c-0.1-0.4-0.2-1-0.3-1.5
	c0.1,0.3,0.4,0.4,0.7,0.4c0.4,0,0.8-0.3,0.8-0.8c0-0.4-0.3-0.8-0.8-0.8c-0.4,0-0.8,0.3-0.8,0.7c0-0.1,0-0.2,0-0.2
	c-0.5-2.9,0.8-3.6,0.8-3.6c1.5-0.8,0.8-1.6,0.8-1.6c-0.7-0.7-1.3-0.2-1.3-0.2c-2.3,1.7-1.8,6.5-1.8,6.5c0.3,2.6,0,3.5,0,3.5
	C14.6,46.6,15,47,15,47z"/>
<circle fill="#FFFFFF" cx="19" cy="39" r="1"/>
<path fill="#FFFFFF" d="M21.3,36.7c0.9-0.6,1.8-1.2,2.7-1.9c1.3-1,2.8-1.7,3.8-3c0.3-0.5,0.7-1.1,0.5-1.7c0-0.1,0-0.2-0.1-0.2
	c-0.6-0.8-1.9,1.1-2.2,1.4c-0.7,0.9-1.8,1.5-2.8,2.2c-0.1,0.1-0.7,0.4-0.7,0.4c0-0.4,0-1,0-1.4c0.1,0.3,0.3,0.5,0.6,0.6
	c0.4,0.1,0.9-0.1,1-0.6c0.1-0.4-0.2-0.9-0.6-1c-0.4-0.1-0.8,0.1-1,0.5c0-0.1,0-0.2,0-0.2c0.1-2.8,1.5-3.3,1.5-3.3
	c1.6-0.4,1.1-1.4,1.1-1.4c-0.5-0.8-1.2-0.4-1.2-0.4c-2.6,1.1-3,5.8-3,5.8c-0.3,2.5-0.7,3.3-0.7,3.3c-1.2,1.1-0.9,1.5-0.9,1.5
	C19.6,37.8,21,36.9,21.3,36.7z"/>
<ellipse transform="matrix(0.2514 -0.9679 0.9679 0.2514 -11.0922 46.8358)" fill="#FFFFFF" cx="24.7" cy="30.6" rx="1" ry="1"/>
<path fill="#FFFFFF" d="M27.3,29.2c1-0.3,1.9-0.8,2.8-1.2c1.3-0.7,2.9-1.1,3.9-2c0.4-0.3,0.8-0.8,0.7-1.4c0-0.1,0-0.1-0.1-0.2
	c-0.3-0.5-1-0.1-1.5,0.3c0,0,0.1-0.1,0.1-0.1c0.2-0.4-0.1-1-0.6-1.2c-0.5-0.2-1.1,0-1.3,0.4c-0.2,0.4,0.1,1,0.6,1.2
	c0.3,0.1,0.6,0.1,0.8,0c-0.2,0.2-0.3,0.3-0.4,0.3c-0.8,0.6-1.9,1-2.9,1.4c-0.1,0-0.7,0.2-0.7,0.3c0.1-0.4,0.1-0.9,0.1-1.2
	c0.1,0.2,0.2,0.5,0.5,0.6c0.4,0.2,0.9,0,1-0.3c0.1-0.3-0.1-0.8-0.5-0.9c-0.4-0.2-0.8,0-1,0.3c0-0.1,0-0.2,0-0.2
	c0.3-2.4,1.7-2.6,1.7-2.6c1.6-0.1,1.2-1,1.2-1c-0.5-0.8-1.2-0.6-1.2-0.6c-2.7,0.5-3.4,4.6-3.4,4.6c-0.4,2.1-1,2.7-1,2.7
	c-1.3,0.7-1,1.2-1,1.2C25.6,29.9,27,29.3,27.3,29.2z"/>
<path fill="#FFFFFF" d="M38.3,94.4c-0.7-0.7-1.5-1.3-2.3-1.9c-1.2-0.9-2.2-2.1-3.6-2.6c-0.5-0.2-1.1-0.3-1.5,0
	c-0.1,0-0.1,0.1-0.2,0.2c-0.5,0.8,1.4,1.5,1.8,1.6c0.9,0.4,1.8,1.2,2.6,1.9c0.1,0.1,0.5,0.5,0.6,0.5c-0.4,0.1-0.8,0.3-1.2,0.4
	c0.2-0.2,0.3-0.4,0.3-0.7c0-0.4-0.4-0.8-0.7-0.7c-0.4,0-0.6,0.4-0.6,0.9c0,0.4,0.4,0.8,0.7,0.7c-0.1,0-0.2,0.1-0.2,0.1
	c-2.3,0.8-3.1-0.3-3.1-0.3c-0.8-1.4-1.5-0.6-1.5-0.6c-0.5,0.7,0,1.3,0,1.3c1.7,2.1,5.6,1,5.6,1c2.1-0.6,2.9-0.4,2.9-0.4
	c1.2,0.8,1.5,0.4,1.5,0.4C39.7,95.6,38.6,94.6,38.3,94.4z"/>
<ellipse transform="matrix(8.728705e-002 0.9962 -0.9962 8.728705e-002 122.2548 52.7414)" fill="#FFFFFF" cx="32.3" cy="93.1" rx="1" ry="0.8"/>
<path fill="#FFFFFF" d="M12.8,56.3c-0.7,1.5-0.2,1.8-0.2,1.8c0.6,0.4,1.5-1.1,1.7-1.4c0.6-0.9,1.2-1.9,1.7-2.9
	c0.8-1.5,1.9-2.8,2.3-4.4c0.1-0.6,0.2-1.3-0.2-1.8c-0.1-0.1-0.1-0.1-0.2-0.2c-0.9-0.5-1.3,1.8-1.5,2.3c-0.3,1.1-1.1,2.2-1.7,3.2
	c-0.1,0.1-0.5,0.6-0.5,0.7c-0.2-0.4-0.4-0.9-0.6-1.4c0.2,0.2,0.5,0.3,0.8,0.3c0.5-0.1,0.8-0.5,0.7-0.9c-0.1-0.4-0.5-0.7-1-0.7
	c-0.4,0.1-0.8,0.5-0.7,0.9c-0.1-0.1-0.1-0.2-0.1-0.2c-1.1-2.7,0-3.7,0-3.7c1.4-1.1,0.4-1.8,0.4-1.8c-0.8-0.5-1.4,0.1-1.4,0.1
	c-2,2.1-0.3,6.7-0.3,6.7C13,55.3,12.8,56.3,12.8,56.3z"/>
<path fill="#FFFFFF" d="M13.9,49.7c0.1,0.6,0.7,0.9,1.2,0.8c0.6-0.1,1-0.6,0.9-1.2c-0.1-0.6-0.7-0.9-1.2-0.8
	C14.2,48.6,13.8,49.1,13.9,49.7z"/>
<path fill="#FFFFFF" d="M13.1,67.2c-0.3,1.7,0.3,1.8,0.3,1.8c0.7,0.2,1.2-1.4,1.3-1.8c0.4-1.1,0.7-2.1,0.9-3.2
	c0.4-1.6,1.1-3.2,1-4.9c0-0.6-0.2-1.3-0.8-1.7c-0.1,0-0.1-0.1-0.2-0.1c-1.1-0.3-0.8,2.1-0.8,2.6c0,1.2-0.5,2.4-0.8,3.5
	c0,0.1-0.3,0.7-0.3,0.8c-0.3-0.4-0.7-0.8-1-1.2c0.3,0.2,0.6,0.2,0.9,0.1c0.4-0.2,0.6-0.7,0.4-1.1c-0.2-0.4-0.7-0.6-1.2-0.4
	c-0.4,0.2-0.6,0.6-0.4,1c-0.1-0.1-0.2-0.2-0.2-0.2c-1.9-2.3-1.1-3.6-1.1-3.6c1.1-1.4-0.1-1.8-0.1-1.8c-1-0.3-1.3,0.5-1.3,0.5
	c-1.4,2.6,1.6,6.6,1.6,6.6C12.9,66.2,13.1,67.2,13.1,67.2z"/>
<path fill="#FFFFFF" d="M12.8,59.1c-0.6,0.2-0.8,0.8-0.5,1.4c0.3,0.5,0.9,0.7,1.5,0.5s0.8-0.8,0.5-1.4C14,59.1,13.4,58.9,12.8,59.1z
	"/>
<path fill="#FFFFFF" d="M16.7,77.3c0.3,1.6,0.9,1.4,0.9,1.4c0.7-0.1,0.6-1.6,0.6-2c0-1.1-0.1-2.1-0.3-3.2c-0.2-1.5,0-3.2-0.7-4.7
	c-0.2-0.5-0.6-1.1-1.3-1.2c-0.1,0-0.2,0-0.3,0c-1.1,0.2-0.1,2.2,0.1,2.6c0.4,1,0.4,2.3,0.5,3.4c0,0.1-0.1,0.8,0,0.8
	c-0.4-0.2-0.9-0.5-1.3-0.7c0.3,0.1,0.6,0,0.9-0.3c0.4-0.3,0.4-0.8,0-1.1c-0.3-0.3-0.9-0.2-1.2,0.1c-0.3,0.3-0.4,0.8-0.1,1.1
	c-0.1-0.1-0.2-0.1-0.2-0.1c-2.6-1.4-2.3-2.7-2.3-2.7c0.5-1.6-0.7-1.6-0.7-1.6c-1,0.1-1.1,0.9-1.1,0.9c-0.5,2.8,3.8,5.2,3.8,5.2
	C16.3,76.5,16.7,77.3,16.7,77.3z"/>
<path fill="#FFFFFF" d="M13.7,70.4c-0.4,0.4-0.5,1,0,1.4c0.4,0.4,1.1,0.3,1.6-0.1c0.4-0.4,0.5-1,0-1.4C14.8,69.9,14.1,70,13.7,70.4z
	"/>
<path fill="#FFFFFF" d="M23.8,86.7c0.7-0.3,0.2-1.8,0.1-2.1c-0.3-1-0.6-2-1-3c-0.6-1.5-0.8-3.1-1.8-4.3c-0.4-0.4-0.9-0.9-1.6-0.9
	c-0.1,0-0.2,0-0.3,0c-1,0.4,0.5,2.1,0.7,2.5c0.7,0.9,0.9,2.1,1.3,3.2c0,0.1,0.1,0.7,0.2,0.8c-0.4-0.1-1-0.2-1.4-0.3
	c0.3,0,0.6-0.2,0.8-0.5c0.3-0.4,0.2-0.9-0.2-1.1c-0.4-0.2-0.9,0-1.2,0.4c-0.3,0.4-0.2,0.9,0.2,1.1c-0.1,0-0.2,0-0.2,0
	c-2.9-0.7-2.9-2.1-2.9-2.1c0.1-1.7-1.1-1.4-1.1-1.4c-1,0.4-0.9,1.1-0.9,1.1c0.2,2.8,4.9,4.1,4.9,4.1c2.4,0.7,3.1,1.4,3.1,1.4
	C23.3,86.9,23.8,86.7,23.8,86.7z"/>
<path fill="#FFFFFF" d="M17.9,79.5c-0.3,0.5-0.2,1.1,0.3,1.4c0.5,0.2,1.2,0,1.5-0.5c0.3-0.5,0.2-1.1-0.3-1.4
	C18.9,78.8,18.3,79,17.9,79.5z"/>
<path fill="#FFFFFF" d="M30.6,93.1c0.6-0.4,0-1.7-0.2-2c-0.4-0.9-0.9-1.8-1.4-2.6c-0.8-1.2-1.2-2.8-2.3-3.7c-0.4-0.3-1-0.7-1.6-0.5
	c-0.1,0-0.2,0-0.2,0.1c-0.9,0.6,0.7,1.9,1,2.2c0.7,0.7,1.2,1.8,1.6,2.7c0,0.1,0.2,0.7,0.3,0.7c-0.4,0-1,0-1.4,0
	c0.3-0.1,0.5-0.3,0.7-0.6c0.2-0.4,0-0.9-0.4-1c-0.4-0.1-0.9,0.2-1.1,0.6c-0.2,0.4,0,0.8,0.3,1c-0.1,0-0.2,0-0.2,0
	c-2.8-0.1-3-1.4-3-1.4c-0.1-1.6-1.2-1.1-1.2-1.1c-0.9,0.5-0.7,1.2-0.7,1.2c0.6,2.6,5.2,2.9,5.2,2.9c2.4,0.2,3.1,0.7,3.1,0.7
	C30.1,93.5,30.6,93.1,30.6,93.1z"/>
<path fill="#FFFFFF" d="M24.5,88.8c0.5,0.1,1.1-0.2,1.4-0.8c0.2-0.5,0-1.1-0.5-1.2c-0.5-0.1-1.1,0.2-1.4,0.8
	C23.8,88.1,24,88.7,24.5,88.8z"/>
<path fill="#FFFFFF" d="M144.7,37.1c0,0,1.2,0.8,0.8,3.6c0,0,0,0.1,0,0.2c0-0.4-0.4-0.8-0.8-0.7c-0.4,0-0.8,0.4-0.8,0.8
	c0,0.4,0.4,0.8,0.8,0.8c0.3,0,0.6-0.2,0.7-0.4c-0.1,0.4-0.2,1-0.3,1.5c0-0.1-0.5-0.5-0.6-0.6c-0.8-0.8-1.8-1.7-2.3-2.8
	c-0.2-0.4-1.1-2.6-1.9-1.9c-0.1,0.1-0.1,0.1-0.1,0.2c-0.3,0.6-0.1,1.3,0.2,1.8c0.7,1.5,2,2.6,3.1,3.9c0.7,0.9,1.4,1.7,2.2,2.5
	c0.3,0.3,1.4,1.5,1.9,1c0,0,0.4-0.3-0.6-1.7c0,0-0.3-0.9,0-3.5c0,0,0.6-4.8-1.8-6.5c0,0-0.6-0.5-1.3,0.2
	C143.9,35.5,143.2,36.3,144.7,37.1z"/>
<circle fill="#FFFFFF" cx="143.6" cy="39" r="1"/>
<path fill="#FFFFFF" d="M138.5,28.5c0,0,1.3,0.5,1.5,3.3c0,0,0,0.1,0,0.2c-0.1-0.4-0.5-0.6-1-0.5c-0.4,0.1-0.7,0.5-0.6,1
	c0.1,0.4,0.5,0.7,1,0.6c0.3-0.1,0.5-0.3,0.6-0.6c0,0.4,0,1,0,1.4c0-0.1-0.6-0.4-0.7-0.4c-0.9-0.6-2.1-1.3-2.8-2.2
	c-0.3-0.4-1.6-2.2-2.2-1.4c0,0.1-0.1,0.1-0.1,0.2c-0.2,0.6,0.2,1.2,0.5,1.7c1,1.3,2.5,2,3.8,3c0.9,0.7,1.7,1.3,2.7,1.9
	c0.3,0.2,1.7,1.1,2,0.6c0,0,0.3-0.4-0.9-1.5c0,0-0.5-0.8-0.7-3.3c0,0-0.4-4.7-3-5.8c0,0-0.7-0.4-1.2,0.4
	C137.4,27.1,136.9,28.1,138.5,28.5z"/>
<ellipse transform="matrix(0.2514 0.9679 -0.9679 0.2514 132.7838 -110.5045)" fill="#FFFFFF" cx="137.8" cy="30.6" rx="1" ry="1"/>
<path fill="#FFFFFF" d="M128.5,25.9c1.1,1,2.6,1.4,3.9,2c0.9,0.4,1.8,0.9,2.8,1.2c0.3,0.1,1.7,0.7,2,0.2c0,0,0.3-0.4-1-1.2
	c0,0-0.5-0.6-1-2.7c0,0-0.7-4-3.4-4.6c0,0-0.7-0.2-1.2,0.6c0,0-0.5,0.9,1.2,1c0,0,1.4,0.2,1.7,2.6c0,0,0,0.1,0,0.2
	c-0.2-0.3-0.6-0.5-1-0.3c-0.4,0.2-0.6,0.6-0.5,0.9c0.1,0.3,0.6,0.5,1,0.3c0.3-0.1,0.5-0.3,0.5-0.6c0,0.4,0.1,0.9,0.1,1.2
	c0-0.1-0.6-0.2-0.7-0.3c-1-0.4-2.1-0.8-2.9-1.4c-0.1-0.1-0.2-0.2-0.4-0.3c0.2,0.1,0.5,0.1,0.8,0c0.5-0.2,0.8-0.7,0.6-1.2
	c-0.2-0.4-0.7-0.6-1.3-0.4c-0.5,0.2-0.8,0.7-0.6,1.2c0,0.1,0.1,0.1,0.1,0.1c-0.5-0.4-1.2-0.8-1.5-0.3c0,0.1-0.1,0.1-0.1,0.2
	C127.8,25.1,128.2,25.6,128.5,25.9z"/>
<path fill="#FFFFFF" d="M131.7,94.4c0,0-0.8,1.1-3.1,0.3c0,0-0.1,0-0.2-0.1c0.4,0,0.7-0.3,0.7-0.7c0-0.4-0.2-0.8-0.6-0.9
	c-0.4,0-0.7,0.3-0.7,0.7c0,0.3,0.1,0.6,0.3,0.7c-0.4-0.1-0.8-0.3-1.2-0.4c0.1,0,0.5-0.4,0.6-0.5c0.8-0.7,1.6-1.5,2.6-1.9
	c0.4-0.2,2.3-0.8,1.8-1.6c0-0.1-0.1-0.1-0.2-0.2c-0.4-0.3-1.1-0.2-1.5,0c-1.3,0.5-2.4,1.7-3.6,2.6c-0.8,0.6-1.6,1.2-2.3,1.9
	c-0.3,0.2-1.4,1.2-1.1,1.7c0,0,0.2,0.5,1.5-0.4c0,0,0.8-0.2,2.9,0.4c0,0,3.9,1.2,5.6-1c0,0,0.5-0.6,0-1.3
	C133.1,93.8,132.5,93,131.7,94.4z"/>
<ellipse transform="matrix(-0.9962 -8.730733e-002 8.730733e-002 -0.9962 251.809 197.1902)" fill="#FFFFFF" cx="130.2" cy="93.1" rx="0.8" ry="1"/>
<path fill="#FFFFFF" d="M149.2,47.8c0,0,1.1,1,0,3.7c0,0,0,0.1-0.1,0.2c0.1-0.4-0.2-0.8-0.7-0.9c-0.5-0.1-0.9,0.2-1,0.7
	c-0.1,0.4,0.2,0.9,0.7,0.9c0.3,0.1,0.6-0.1,0.8-0.3c-0.2,0.4-0.4,1-0.6,1.4c0-0.1-0.4-0.6-0.5-0.7c-0.6-1-1.4-2.1-1.7-3.2
	c-0.1-0.5-0.6-2.8-1.5-2.3c-0.1,0-0.1,0.1-0.2,0.2c-0.4,0.5-0.4,1.3-0.2,1.8c0.4,1.6,1.5,3,2.3,4.4c0.5,1,1.1,2,1.7,2.9
	c0.2,0.3,1.1,1.7,1.7,1.4c0,0,0.5-0.2-0.2-1.8c0,0-0.1-1,0.7-3.4c0,0,1.7-4.6-0.3-6.7c0,0-0.5-0.6-1.4-0.1
	C148.8,46,147.9,46.7,149.2,47.8z"/>
<path fill="#FFFFFF" d="M146.6,49.3c-0.1,0.6,0.3,1.1,0.9,1.2c0.6,0.1,1.1-0.3,1.2-0.8c0.1-0.6-0.3-1.1-0.9-1.2
	C147.2,48.4,146.7,48.8,146.6,49.3z"/>
<path fill="#FFFFFF" d="M151.4,58.9c0,0,0.8,1.2-1.1,3.6c0,0-0.1,0.1-0.2,0.2c0.2-0.4,0-0.9-0.4-1c-0.4-0.2-1,0-1.2,0.4
	c-0.2,0.4,0,0.9,0.4,1.1c0.3,0.1,0.6,0.1,0.9-0.1c-0.3,0.4-0.7,0.8-1,1.2c0.1-0.1-0.2-0.7-0.3-0.8c-0.4-1.1-0.8-2.3-0.8-3.5
	c0-0.5,0.2-2.8-0.8-2.6c-0.1,0-0.2,0.1-0.2,0.1c-0.6,0.4-0.7,1.1-0.8,1.7c-0.1,1.7,0.7,3.3,1,4.9c0.2,1.1,0.5,2.2,0.9,3.2
	c0.1,0.4,0.6,1.9,1.3,1.8c0,0,0.6-0.1,0.3-1.8c0,0,0.2-0.9,1.7-3.1c0,0,3.1-4,1.6-6.6c0,0-0.3-0.7-1.3-0.5
	C151.5,57,150.3,57.5,151.4,58.9z"/>
<path fill="#FFFFFF" d="M148.8,61c0.6,0.2,1.2,0,1.5-0.5c0.3-0.5,0-1.1-0.5-1.4c-0.6-0.2-1.2,0-1.5,0.5
	C148,60.1,148.3,60.8,148.8,61z"/>
<path fill="#FFFFFF" d="M151.2,69.1c0,0-1.2-0.1-0.7,1.6c0,0,0.3,1.4-2.3,2.7c0,0-0.1,0-0.2,0.1c0.3-0.3,0.3-0.8-0.1-1.1
	c-0.4-0.3-0.9-0.4-1.2-0.1c-0.3,0.3-0.3,0.8,0,1.1c0.2,0.2,0.6,0.3,0.9,0.3c-0.4,0.2-0.9,0.5-1.3,0.7c0.1,0,0-0.7,0-0.8
	c0.1-1.1,0-2.4,0.5-3.4c0.2-0.4,1.2-2.4,0.1-2.6c-0.1,0-0.2,0-0.3,0c-0.7,0.1-1.1,0.7-1.3,1.2c-0.7,1.4-0.5,3.1-0.7,4.7
	c-0.1,1-0.3,2.1-0.3,3.2c0,0.4-0.1,1.9,0.6,2c0,0,0.6,0.1,0.9-1.4c0,0,0.5-0.8,2.7-2.1c0,0,4.2-2.4,3.8-5.2
	C152.3,70,152.2,69.2,151.2,69.1z"/>
<path fill="#FFFFFF" d="M147.3,70.3c-0.4,0.4-0.4,1,0,1.4c0.4,0.4,1.1,0.5,1.6,0.1c0.4-0.4,0.4-1,0-1.4
	C148.4,70,147.8,69.9,147.3,70.3z"/>
<path fill="#FFFFFF" d="M147.2,78.8c0,0-1.2-0.3-1.1,1.4c0,0,0,1.4-2.9,2.1c0,0-0.1,0-0.2,0c0.4-0.2,0.5-0.7,0.2-1.1
	c-0.3-0.4-0.8-0.6-1.2-0.4c-0.4,0.2-0.5,0.7-0.2,1.1c0.2,0.3,0.5,0.4,0.8,0.5c-0.4,0.1-1,0.2-1.4,0.3c0.1,0,0.2-0.7,0.2-0.8
	c0.3-1.1,0.6-2.3,1.3-3.2c0.3-0.4,1.7-2.1,0.7-2.5c-0.1,0-0.2,0-0.3,0c-0.7,0-1.2,0.4-1.6,0.9c-1,1.2-1.2,2.9-1.8,4.3
	c-0.4,1-0.8,2-1,3c-0.1,0.4-0.6,1.9,0.1,2.1c0,0,0.5,0.3,1.2-1.2c0,0,0.6-0.6,3.1-1.4c0,0,4.7-1.3,4.9-4.1
	C148,80,148.1,79.2,147.2,78.8z"/>
<path fill="#FFFFFF" d="M143.2,79c-0.5,0.2-0.6,0.8-0.3,1.4c0.3,0.5,1,0.7,1.5,0.5c0.5-0.2,0.6-0.8,0.3-1.4
	C144.3,79,143.6,78.8,143.2,79z"/>
<path fill="#FFFFFF" d="M141,87.5c0,0-1.1-0.6-1.2,1.1c0,0-0.2,1.3-3,1.4c0,0-0.1,0-0.2,0c0.4-0.1,0.5-0.5,0.3-1
	c-0.2-0.4-0.7-0.7-1.1-0.6c-0.4,0.1-0.6,0.5-0.4,1c0.1,0.3,0.4,0.5,0.7,0.6c-0.4,0-1,0-1.4,0c0.1,0,0.3-0.6,0.3-0.7
	c0.4-0.9,0.9-2,1.6-2.7c0.3-0.3,1.9-1.6,1-2.2c-0.1,0-0.2-0.1-0.2-0.1c-0.6-0.2-1.2,0.2-1.6,0.5c-1.1,1-1.6,2.5-2.3,3.7
	c-0.5,0.8-1,1.7-1.4,2.6c-0.1,0.3-0.8,1.6-0.2,2c0,0,0.5,0.3,1.3-0.9c0,0,0.7-0.5,3.1-0.7c0,0,4.6-0.3,5.2-2.9
	C141.6,88.7,141.9,88.1,141,87.5z"/>
<path fill="#FFFFFF" d="M137.1,86.8c-0.5,0.1-0.7,0.7-0.5,1.2c0.2,0.5,0.9,0.9,1.4,0.8c0.5-0.1,0.7-0.7,0.5-1.2
	C138.2,87.1,137.6,86.7,137.1,86.8z"/>
<path fill="#FFFFFF" d="M42.6,53.4c0,0,2.8-0.4,3-5.5h-0.5c0,0-0.3,6.7-8,3.7c0,0-2.6,3.7-3.6,3.4c0,0,1.8-3.9,3.1-4.9
	c0,0,3.9,2.4,6.7-0.1c0,0,1.1-0.8,1.6-5c0,0-3.6,3.4-8,0.3c0,0-2.2,1.7-3.4,4.4c0,0,0.1-4.7,0.9-7.6l-3,1.9v2.7c0,0-4.2,2.4-6.3,5
	c0,0-3.6,11,4.6,16.8c0,0,4,3.1,9.4,2.3c0,0,1.3-1.9,3.7-3.7C42.7,67.3,52.7,60.3,42.6,53.4z M31.1,63.6c-1.8-1.7-1.9-3.4-1.9-3.4
	c0-4,1.9-6.6,1.9-6.6V63.6z M31.2,51.8c-2,2.3-2.2,6.5-2.2,6.5l-0.3,0.5c-0.7-5.8,2.4-9,2.4-9l0.1,0V51.8z M33.3,65.8
	c-0.3-2.5-0.4-5.7,1.1-7.9c1.4-2,4.7-1.8,6.3-0.2c0.7,0.7,1,1.7,1.6,2.4c-1.3-1.4-3.1-2.7-5-2.4c-2,0.3-3,2.3-3.5,4.1
	C33.5,63,33.2,64.5,33.3,65.8z M40.3,66.4c-4.1,1.7-6.4-0.6-6.4-0.6c-0.2-5.3,2.4-6.4,2.4-6.4c4.4-1.8,6.2,2.3,6.2,2.3
	C43,65,40.3,66.4,40.3,66.4z"/>
<path fill="#FFFFFF" d="M63.7,65.4c0,0-0.8-6.5,0.9-10.8c0,0-2-1.1-2.8-2.9c0,0-2.8,2.3-4.1,3.8c0,0,1,0.7,1.6,2v5
	c0,0-1.9,2.6-3,3.1c0,0-4.1-4.4-0.2-11.4c0,0-1.8-1.2-3.2-2.7c0,0-3.9,1.8-5.7,5.3l1.3,1.6c0,0,1.3-1.4,2.2-1.9
	c0,0-2.7,10.8,4.5,14.8c0,0,2.8-2.2,4.2-4.8c0,0,0.2,2.6,2.4,5c0,0,3.3-4.4,5.6-5.7l-1.5-1.6L63.7,65.4z"/>
<path fill="#FFFFFF" d="M54.4,50.6c0,0,1.2-1.5,2.7-2.8c0.4,0.4,1.9,1.8,2.9,2.8c0,0,1.3-1.7,3-3.1c0,0-1.9-1.2-3.1-2.8
	c0,0-1.6,2.1-2.6,2.8c-0.3-0.2-2-1.3-3-2.8c0,0-1.9,2.6-2.9,2.9C51.4,47.6,53.3,49.3,54.4,50.6z"/>
<path fill="#FFFFFF" d="M75.2,66.3c0,0-1.8-0.6-2.8-3c0,0,7.6-3.5,8-8.5c0,0-4.3,0.1-6.4-3.5c0,0-4.6,3.9-6.1,6.9
	c0,0-2.3,9.5,6.6,13.1c0,0,5.2-3.8,6.4-8.2l-1.8-1.2C79.2,61.9,77,65.9,75.2,66.3z M72.5,55.9c0.8,0.8,3.2,2,3.2,2
	c-0.9,1.2-3.7,2.7-3.7,2.7C71.8,57.8,72.5,55.9,72.5,55.9z"/>
<path fill="#FFFFFF" d="M92.5,51.2c0,0-2.8,1.9-4,4.5c0,0-0.8-3.2-2.5-4.2c0,0-4.2,2.8-5.4,6.1l1.7,1.4c0,0,1.2-1.6,2.1-2.4
	c0,0,0.5,7.1-0.6,11.7c0,0,2.7,1.3,3.5,3.3c0,0,2-2.8,3.7-4c0,0-1-1-2.2-1.8v-4.5c0,0,0.9-2.7,2.8-4.4c0,0,0.9,0.8,2.7,1.2
	c0,0,1.5-2.4,1.7-4.7C96,53.3,93.8,53.2,92.5,51.2z"/>
<path fill="#FFFFFF" d="M106.8,51.2c0,0-2.8,1.9-4,4.5c0,0-0.8-3.2-2.5-4.2c0,0-4.2,2.8-5.4,6.1l1.7,1.4c0,0,1.2-1.6,2.1-2.4
	c0,0,0.5,7.1-0.6,11.7c0,0,2.7,1.3,3.5,3.3c0,0,2-2.8,3.7-4c0,0-1-1-2.2-1.8v-4.5c0,0,0.9-2.7,2.8-4.4c0,0,0.9,0.8,2.7,1.2
	c0,0,1.5-2.4,1.7-4.7C110.2,53.3,108,53.2,106.8,51.2z"/>
<path fill="#FFFFFF" d="M117.6,65.1c0,0-1.5-7.7,1.3-12.6l-5.3-0.3c0,0-2.8,2.6-3.9,5.7l1.4,1c0,0,1.7-2.2,2.7-2.9
	c0,0-3.2,10,1.6,15.4c0,0,2.2-3.4,5.6-5.8l-1.4-1.8C119.8,63.7,118.5,64.6,117.6,65.1z"/>
<path fill="#FFFFFF" d="M129,67.3l-1.6-1.3v-5.9c0,0,1.6-2.6,2.8-3.4c0,0,0.9,0.7,1.7,1.1c0.8,0.4-0.1,0.1-0.1,0.1
	s-1.8,9.4,2.4,13.5c0,0,3.6-4.6,5.8-6l-1.7-1.6c0,0-1.2,1-2,1.5c0,0-1.3-6.8,1.1-11.3c0,0-3.3,0.3-6.4-2.7c0,0-2.4,2.3-3.7,4.7
	c0,0-0.6-3.9-2.2-4.4c0,0-4.3,2.8-5.7,6.1L121,59l2.1-2.1c0,0,0.6,8.9-0.5,11.1c0,0,1.9,1.9,2.4,3.5C125,71.6,127.7,68.4,129,67.3z"
	/>
<path fill="#FFFFFF" d="M120,42.7c0,0-4.3,2.5-6.5,5.2c0,0-0.3,1.3-0.4,2.9c0,0,2.6-1.8,5.5-3.1C118.6,47.7,119.1,44.6,120,42.7z"/>
<polygon fill="#FFFFFF" points="81.3,86.2 79.5,88.3 78.5,110.9 81.3,110.9 84.1,110.9 83.1,88.3 "/>
</svg>
